<?xml version="1.0" standalone="no"?>
<!DOCTYPE svg PUBLIC "-//W3C//DTD SVG 20010904//EN"
 "http://www.w3.org/TR/2001/REC-SVG-20010904/DTD/svg10.dtd">
<svg version="1.0" xmlns="http://www.w3.org/2000/svg"
 width="123.000000pt" height="129.000000pt" viewBox="0 0 123.000000 129.000000"
 preserveAspectRatio="xMidYMid meet">

<g transform="translate(0.000000,129.000000) scale(0.100000,-0.100000)"
fill="#000000" stroke="none">
<path d="M532 1148 c-9 -9 -6 -18 15 -40 29 -31 28 -39 -22 -107 -14 -19 -25
-44 -25 -57 0 -23 44 -84 61 -84 21 0 20 32 -1 55 -26 27 -23 37 25 104 32 43
32 72 -1 110 -29 34 -35 36 -52 19z"/>
<path d="M697 1148 c-2 -7 7 -25 21 -40 28 -31 26 -39 -23 -107 -14 -19 -25
-44 -25 -57 0 -23 44 -84 61 -84 21 0 20 32 -1 55 -26 27 -23 37 25 104 32 43
32 72 -1 110 -27 32 -49 40 -57 19z"/>
<path d="M258 810 c-67 -20 -108 -73 -108 -140 0 -88 58 -144 150 -146 50 -1
62 -6 119 -47 80 -59 151 -81 241 -75 163 12 288 124 321 290 6 31 8 73 5 92
l-7 36 -347 -1 c-191 0 -359 -4 -374 -9z m27 -97 c3 -21 13 -55 20 -77 17 -47
12 -58 -23 -50 -35 8 -72 49 -72 79 0 23 44 85 60 85 5 0 12 -17 15 -37z m633
-7 l-3 -35 -277 -3 c-299 -4 -288 -6 -288 48 l0 24 286 0 285 0 -3 -34z"/>
<path d="M212 333 l3 -28 378 -3 377 -2 0 30 0 30 -381 0 -380 0 3 -27z"/>
<path d="M442 258 c-7 -7 -12 -34 -12 -60 0 -52 18 -71 45 -48 17 14 20 40 5
40 -5 0 -10 -7 -10 -15 0 -8 -4 -15 -10 -15 -5 0 -10 20 -10 45 0 25 5 45 10
45 6 0 10 -7 10 -15 0 -8 5 -15 10 -15 14 0 13 23 -2 38 -15 15 -21 15 -36 0z"/>
<path d="M594 262 c-18 -12 -22 -35 -14 -82 7 -44 8 -45 9 -8 0 20 7 39 14 42
9 5 9 7 -1 12 -10 5 -10 9 -1 20 13 16 9 27 -7 16z"/>
<path d="M636 248 c-10 -16 -12 -37 -7 -68 3 -25 9 -40 13 -35 7 12 19 125 12
125 -2 0 -10 -10 -18 -22z"/>
<path d="M504 216 c-11 -30 0 -71 20 -71 26 0 40 26 32 58 -7 29 -42 38 -52
13z m36 -31 c0 -14 -4 -25 -10 -25 -5 0 -10 11 -10 25 0 14 5 25 10 25 6 0 10
-11 10 -25z"/>
<path d="M677 224 c-4 -4 -7 -22 -7 -40 0 -24 5 -34 20 -39 22 -7 40 0 40 16
0 6 -9 7 -20 4 -11 -4 -20 -2 -20 4 0 6 9 11 21 11 15 0 20 5 17 23 -3 22 -36
36 -51 21z m33 -24 c0 -5 -4 -10 -10 -10 -5 0 -10 5 -10 10 0 6 5 10 10 10 6
0 10 -4 10 -10z"/>
<path d="M747 224 c-4 -4 -7 -22 -7 -40 0 -24 5 -34 20 -39 22 -7 40 0 40 16
0 6 -9 7 -20 4 -11 -4 -20 -2 -20 4 0 6 9 11 21 11 15 0 20 5 17 23 -3 22 -36
36 -51 21z m33 -24 c0 -5 -4 -10 -10 -10 -5 0 -10 5 -10 10 0 6 5 10 10 10 6
0 10 -4 10 -10z"/>
</g>
</svg>
